<svg xmlns="http://www.w3.org/2000/svg" viewBox="0 0 24 24" fill="none">
  <circle cx="12" cy="12" r="12" fill="#2563eb"/>
  <path d="M15.5 15.5c-1.5 1.5-4 1.5-5.5 0s-1.5-4 0-5.5l1-1c.5-.5.5-1.5 0-2s-1.5-.5-2 0l-1 1c-2.5 2.5-2.5 6.5 0 9s6.5 2.5 9 0l1-1c.5-.5.5-1.5 0-2s-1.5-.5-2 0l-1 1z" fill="white" transform="rotate(-45 12 12)"/>
  <path d="M7 5.5c-.3-.3-.3-.8 0-1.1.3-.3.8-.3 1.1 0l2 2c.3.3.3.8 0 1.1-.3.3-.8.3-1.1 0l-2-2zm10 13c.3.3.3.8 0 1.1-.3.3-.8.3-1.1 0l-2-2c-.3-.3-.3-.8 0-1.1.3-.3.8-.3 1.1 0l2 2z" fill="white"/>
</svg>
